<svg id="Layer_1" data-name="Layer 1" xmlns="http://www.w3.org/2000/svg" width="4.9cm" height="1cm" viewBox="0 0 139.3 29.5"><rect width="139.3" height="29.53" rx="14.4" fill="#9bdfea"/><path d="M28.9,10.8h1.3l-2.8,7.6H25.9L23,10.8h1.4l2.2,6.3Z" fill="#fff"/><path d="M31.1,10.8a.8.8,0,0,1,.8-.8.7.7,0,0,1,.8.8.8.8,0,0,1-.8.8A.9.9,0,0,1,31.1,10.8Zm.2,1.6h1.2v6H31.3Z" fill="#fff"/><path d="M36.8,18.5a2.9,2.9,0,0,1-3-3.1,2.9,2.9,0,0,1,3-3.1,2.8,2.8,0,0,1,2.9,2.9v.7H35.1a1.6,1.6,0,0,0,1.7,1.6,1.4,1.4,0,0,0,1.4-.9h1.4A2.8,2.8,0,0,1,36.8,18.5Zm-1.7-3.7h3.3a1.5,1.5,0,0,0-1.7-1.5A1.6,1.6,0,0,0,35.1,14.8Z" fill="#fff"/><path d="M40.3,12.4h1.2l1.3,4.8,1.3-4.8h1.3l1.2,4.8,1.3-4.8h1.2l-1.9,6H45.9l-1.2-4.5-1.2,4.5H42.1Z" fill="#fff"/><path d="M52.9,10.8h1.4l2.6,6,2.7-6H61v7.6H59.7V13.2l-2.3,5.2h-.9l-2.3-5.2v5.2H52.9Z" fill="#fff"/><path d="M65.2,18.5a2.9,2.9,0,0,1-3-3.1,3.1,3.1,0,0,1,6.2,0A3,3,0,0,1,65.2,18.5Zm0-1.1a1.8,1.8,0,0,0,1.9-2,1.8,1.8,0,0,0-1.8-2,1.7,1.7,0,0,0-1.8,2C63.5,16.8,64.3,17.4,65.2,17.4Z" fill="#fff"/><path d="M70.9,18.4H69.6v-6h1.3v.8a1.8,1.8,0,0,1,1.8-.9v1.3h-.3c-1,0-1.5.3-1.5,1.6Z" fill="#fff"/><path d="M76.5,18.5a2.9,2.9,0,0,1-3.1-3.1,2.9,2.9,0,0,1,3.1-3.1,2.8,2.8,0,0,1,2.9,2.9v.7H74.7a1.7,1.7,0,0,0,1.8,1.6,1.5,1.5,0,0,0,1.4-.9h1.3A2.7,2.7,0,0,1,76.5,18.5Zm-1.8-3.7h3.4a1.6,1.6,0,0,0-1.7-1.5A1.8,1.8,0,0,0,74.7,14.8Z" fill="#fff"/><path d="M88.1,16.9H84.9l-.5,1.5H83l2.8-7.6h1.4L90,18.4H88.7Zm-1.6-4.6-1.2,3.5h2.5Z" fill="#fff"/><path d="M94.5,12.3a2.9,2.9,0,0,1,2.9,3.1,3,3,0,0,1-2.9,3.1,2.4,2.4,0,0,1-2.1-1v.9H91.2V10.3h1.2v3A2.5,2.5,0,0,1,94.5,12.3Zm-.2,1.1a1.9,1.9,0,0,0-1.9,2,1.9,1.9,0,1,0,3.7,0A1.8,1.8,0,0,0,94.3,13.4Z" fill="#fff"/><path d="M101.2,18.5a2.9,2.9,0,0,1-3-3.1,3.1,3.1,0,0,1,6.2,0A3,3,0,0,1,101.2,18.5Zm0-1.1a1.8,1.8,0,0,0,1.9-2,1.8,1.8,0,0,0-1.8-2,1.7,1.7,0,0,0-1.8,2C99.5,16.8,100.3,17.4,101.2,17.4Z" fill="#fff"/><path d="M111.1,18.4h-1.2v-.7a2.3,2.3,0,0,1-1.8.8,2.4,2.4,0,0,1-2.5-2.6V12.4h1.2v3.3c0,1.2.6,1.7,1.5,1.7s1.6-.5,1.6-1.7V12.4h1.2Z" fill="#fff"/><path d="M113,13.4h-.7v-1h.7V10.9h1.2v1.5h1.5v1h-1.5v3.3c0,.5.2.7.7.7h.8v1h-1c-1.1,0-1.7-.4-1.7-1.7Z" fill="#fff"/><path d="M117.4,18.5a.8.8,0,0,1-.8-.8.7.7,0,0,1,.8-.8.8.8,0,0,1,.8.8A.9.9,0,0,1,117.4,18.5Z" fill="#fff"/><path d="M120,18.5a.9.9,0,0,1-.8-.8.8.8,0,0,1,.8-.8.7.7,0,0,1,.8.8A.8.8,0,0,1,120,18.5Z" fill="#fff"/><path d="M122.7,18.5a.8.8,0,0,1-.8-.8.7.7,0,0,1,.8-.8.8.8,0,0,1,.8.8A.9.9,0,0,1,122.7,18.5Z" fill="#fff"/></svg>